<svg width="680" height="658" viewBox="0 0 680 658" fill="none" xmlns="http://www.w3.org/2000/svg">
<path fill-rule="evenodd" clip-rule="evenodd" d="M319.832 26.926C393.17 53.9479 462.644 102.058 523.429 164.871C598.077 242.009 665.769 325.219 677.122 420.003C688.659 516.329 631.743 562.42 567.684 606.705C508.07 647.918 441.331 670.504 356.395 647.843C270.266 624.864 193.591 566.727 125.778 488.804C52.7247 404.857 7.32583 328.195 1.6457 231.786C-4.03453 135.376 27.7283 59.0234 98.2603 21.7364C159.315 -10.5402 239.284 -2.75266 319.832 26.926Z" stroke="#DDDDDD"/>
<path fill-rule="evenodd" clip-rule="evenodd" d="M355.777 137.502C413.537 158.065 468.097 192.601 515.687 236.675C574.13 290.801 594.775 342.228 603.079 406.006C611.519 470.821 584.174 507.414 533.245 534.856C485.849 560.395 431.948 556.634 364.992 538.594C297.096 520.3 252.229 494.236 199.192 439.817C142.056 381.192 117.634 331.483 113.824 266.811C110.013 202.138 131.932 165.968 187.927 143.426C236.398 123.913 292.338 114.917 355.777 137.502Z" stroke="#DDDDDD"/>
<path d="M416.224 472.462C332.396 464.941 233.902 403.963 227.168 289.614C222.664 213.113 322.818 204.629 402.615 241.348C463.61 269.416 520.498 311.048 532.479 376.476C545.999 450.302 483.365 478.485 416.224 472.462Z" stroke="#DDDDDD"/>
</svg>
