<svg width="37" height="36" viewBox="0 0 37 36" fill="none" xmlns="http://www.w3.org/2000/svg">
<path d="M33.3 7.4H27.75V3.7C27.75 1.65945 26.0905 0 24.05 0H12.95C10.9095 0 9.25 1.65945 9.25 3.7V7.4H3.7C1.65945 7.4 0 9.05945 0 11.1V31.45C0 33.4906 1.65945 35.15 3.7 35.15H33.3C35.3405 35.15 37 33.4906 37 31.45V11.1C37 9.05945 35.3405 7.4 33.3 7.4ZM25.9 11.1V31.45H11.1V11.1H25.9ZM24.05 3.7V7.4H12.95V3.7H24.05ZM3.7 11.1H7.4V31.45H3.7V11.1ZM29.6 31.45V11.1H33.3L33.3018 31.45H29.6Z" fill="white"/>
</svg>
