<svg width="43" height="49" viewBox="0 0 43 49" fill="none" xmlns="http://www.w3.org/2000/svg">
<path d="M42.5205 37.5935V11.4063C42.5205 5.72889 32.8957 0.931396 21.5 0.931396C10.1042 0.931396 0.479431 5.72889 0.479431 11.4063V37.5935C0.479431 43.2709 10.1042 48.0684 21.5 48.0684C32.8957 48.0684 42.5205 43.2709 42.5205 37.5935ZM21.5 6.16884C31.1983 6.16884 37.0841 10.1153 37.2654 11.3906C37.0841 12.6973 31.1983 16.6437 21.5 16.6437C11.8016 16.6437 5.91587 12.6973 5.73457 11.422C5.91587 10.1153 11.8016 6.16884 21.5 6.16884ZM5.73457 18.2333C9.62074 20.4513 15.291 21.8812 21.5 21.8812C27.7089 21.8812 33.3792 20.4513 37.2654 18.2333V24.4842C37.0841 25.7909 31.1983 29.7373 21.5 29.7373C11.8016 29.7373 5.91587 25.7909 5.73457 24.4999V18.2333ZM5.73457 37.5935V31.3269C9.62074 33.545 15.291 34.9748 21.5 34.9748C27.7089 34.9748 33.3792 33.545 37.2654 31.3269V37.5778C37.0841 38.8845 31.1983 42.8309 21.5 42.8309C11.8016 42.8309 5.91587 38.8845 5.73457 37.5935Z" fill="white"/>
</svg>
