<svg width="37" height="35" viewBox="0 0 37 35" fill="none" xmlns="http://www.w3.org/2000/svg">
<path d="M35.3182 25.4545H1.68182C1.23577 25.4545 0.807995 25.6222 0.492593 25.9205C0.177191 26.2189 0 26.6235 0 27.0455C0 27.4674 0.177191 27.872 0.492593 28.1704C0.807995 28.4688 1.23577 28.6364 1.68182 28.6364H35.3182C35.7642 28.6364 36.192 28.4688 36.5074 28.1704C36.8228 27.872 37 27.4674 37 27.0455C37 26.6235 36.8228 26.2189 36.5074 25.9205C36.192 25.6222 35.7642 25.4545 35.3182 25.4545ZM35.3182 31.8182H1.68182C1.23577 31.8182 0.807995 31.9858 0.492593 32.2841C0.177191 32.5825 0 32.9872 0 33.4091C0 33.831 0.177191 34.2357 0.492593 34.534C0.807995 34.8324 1.23577 35 1.68182 35H35.3182C35.7642 35 36.192 34.8324 36.5074 34.534C36.8228 34.2357 37 33.831 37 33.4091C37 32.9872 36.8228 32.5825 36.5074 32.2841C36.192 31.9858 35.7642 31.8182 35.3182 31.8182ZM8.40909 9.54545C8.07646 9.54545 7.7513 9.63876 7.47472 9.81357C7.19815 9.98838 6.98259 10.2368 6.85529 10.5275C6.728 10.8182 6.69469 11.1381 6.75959 11.4467C6.82448 11.7553 6.98466 12.0388 7.21987 12.2613C7.45507 12.4838 7.75474 12.6353 8.08098 12.6967C8.40722 12.7581 8.74538 12.7266 9.05269 12.6062C9.36001 12.4858 9.62267 12.2818 9.80747 12.0202C9.99227 11.7586 10.0909 11.451 10.0909 11.1364C10.0909 10.7144 9.91372 10.3098 9.59832 10.0114C9.28291 9.71307 8.85514 9.54545 8.40909 9.54545ZM31.9545 0H5.04545C3.70732 0 2.42399 0.502839 1.47778 1.3979C0.531573 2.29296 0 3.50692 0 4.77273V17.5C0 18.7658 0.531573 19.9798 1.47778 20.8748C2.42399 21.7699 3.70732 22.2727 5.04545 22.2727H31.9545C33.2927 22.2727 34.576 21.7699 35.5222 20.8748C36.4684 19.9798 37 18.7658 37 17.5V4.77273C37 3.50692 36.4684 2.29296 35.5222 1.3979C34.576 0.502839 33.2927 0 31.9545 0ZM33.6364 17.5C33.6364 17.9219 33.4592 18.3266 33.1438 18.6249C32.8284 18.9233 32.4006 19.0909 31.9545 19.0909H5.04545C4.59941 19.0909 4.17163 18.9233 3.85623 18.6249C3.54083 18.3266 3.36364 17.9219 3.36364 17.5V4.77273C3.36364 4.35079 3.54083 3.94614 3.85623 3.64778C4.17163 3.34943 4.59941 3.18182 5.04545 3.18182H31.9545C32.4006 3.18182 32.8284 3.34943 33.1438 3.64778C33.4592 3.94614 33.6364 4.35079 33.6364 4.77273V17.5ZM18.5 6.36364C17.5021 6.36364 16.5266 6.64355 15.6969 7.16799C14.8672 7.69242 14.2205 8.43782 13.8386 9.30992C13.4567 10.182 13.3568 11.1417 13.5515 12.0675C13.7462 12.9933 14.2267 13.8437 14.9323 14.5112C15.6379 15.1787 16.537 15.6332 17.5157 15.8174C18.4944 16.0015 19.5089 15.907 20.4308 15.5458C21.3527 15.1846 22.1407 14.5728 22.6951 13.7879C23.2495 13.0031 23.5455 12.0803 23.5455 11.1364C23.5455 9.87056 23.0139 8.6566 22.0677 7.76154C21.1215 6.86648 19.8381 6.36364 18.5 6.36364ZM18.5 12.7273C18.1674 12.7273 17.8422 12.634 17.5656 12.4592C17.2891 12.2843 17.0735 12.0359 16.9462 11.7452C16.8189 11.4545 16.7856 11.1346 16.8505 10.826C16.9154 10.5174 17.0756 10.2339 17.3108 10.0114C17.546 9.78893 17.8457 9.63741 18.1719 9.57602C18.4981 9.51464 18.8363 9.54614 19.1436 9.66655C19.4509 9.78697 19.7136 9.99088 19.8984 10.2525C20.0832 10.5141 20.1818 10.8217 20.1818 11.1364C20.1818 11.5583 20.0046 11.963 19.6892 12.2613C19.3738 12.5597 18.946 12.7273 18.5 12.7273ZM28.5909 9.54545C28.2583 9.54545 27.9331 9.63876 27.6565 9.81357C27.38 9.98838 27.1644 10.2368 27.0371 10.5275C26.9098 10.8182 26.8765 11.1381 26.9414 11.4467C27.0063 11.7553 27.1665 12.0388 27.4017 12.2613C27.6369 12.4838 27.9366 12.6353 28.2628 12.6967C28.589 12.7581 28.9272 12.7266 29.2345 12.6062C29.5418 12.4858 29.8045 12.2818 29.9893 12.0202C30.1741 11.7586 30.2727 11.451 30.2727 11.1364C30.2727 10.7144 30.0955 10.3098 29.7801 10.0114C29.4647 9.71307 29.037 9.54545 28.5909 9.54545Z" fill="white"/>
</svg>
