<svg width="453" height="80" viewBox="0 0 453 80" fill="none" xmlns="http://www.w3.org/2000/svg">
<path fill-rule="evenodd" clip-rule="evenodd" d="M160.58 80H140.9V76.9485L175.23 0H183.92L217.91 76.9485V80H198.23L179.92 35.2549H179.35L160.58 80Z" fill="white"/>
<path fill-rule="evenodd" clip-rule="evenodd" d="M100.09 0.908557H97.8V19.326H100.09C125.6 19.326 125.6 61.5825 100.09 61.5825H97.8V79.9901H100.09C152.26 79.9901 152.26 0.898682 100.09 0.898682V0.908557ZM85.09 0.908557H64.62V79.9901H85.1V61.5825V19.326L85.09 0.908557Z" fill="white"/>
<path d="M52.9 0.898682H32.31V80H52.9V0.898682Z" fill="white"/>
<path d="M20.59 0.898682H0V80H20.59V0.898682Z" fill="white"/>
<path d="M250.51 23.0786C250.54 24.6929 250.3 26.3011 249.8 27.8385C249.387 29.1063 248.682 30.2623 247.74 31.2158C246.798 32.1178 245.659 32.7936 244.41 33.1909C242.891 33.6671 241.303 33.8939 239.71 33.8624H235.2C234.941 33.8583 234.691 33.7678 234.49 33.6056C234.364 33.4986 234.267 33.3622 234.207 33.2088C234.148 33.0553 234.128 32.8896 234.15 32.7267V13.9636C234.126 13.7992 234.145 13.6316 234.205 13.4762C234.264 13.3209 234.362 13.1828 234.49 13.0749C234.692 12.9155 234.942 12.8285 235.2 12.828H240C241.586 12.7897 243.167 13.027 244.67 13.5291C245.879 13.9597 246.973 14.6552 247.87 15.5634C248.768 16.4707 249.451 17.5635 249.87 18.763C250.334 20.1544 250.55 21.6144 250.51 23.0786ZM247.51 23.1971C247.519 22.123 247.378 21.0529 247.09 20.0172C246.825 19.089 246.369 18.2249 245.75 17.4793C245.129 16.7512 244.345 16.1764 243.46 15.8004C242.314 15.3607 241.089 15.1558 239.86 15.1981H237V31.601H239.91C241.074 31.6316 242.235 31.4612 243.34 31.0973C244.238 30.7856 245.043 30.2559 245.68 29.5568C246.337 28.801 246.815 27.9105 247.08 26.9497C247.416 25.7274 247.567 24.463 247.53 23.1971H247.51Z" fill="white"/>
<path d="M266.7 32.7368C266.711 32.9077 266.711 33.0793 266.7 33.2503C266.681 33.3779 266.641 33.5015 266.58 33.6157C266.539 33.7017 266.473 33.7739 266.39 33.823C266.32 33.8708 266.235 33.895 266.15 33.8922H255.95C255.688 33.888 255.434 33.7976 255.23 33.6354C255.108 33.5248 255.014 33.3879 254.955 33.2354C254.896 33.0829 254.874 32.919 254.89 32.7565V13.9934C254.873 13.8294 254.895 13.6638 254.954 13.5095C255.013 13.3553 255.108 13.2167 255.23 13.1046C255.435 12.9453 255.689 12.8584 255.95 12.8577H266C266.084 12.8564 266.167 12.8769 266.24 12.917C266.317 12.9712 266.376 13.0468 266.41 13.1342C266.458 13.2524 266.495 13.3747 266.52 13.4996C266.533 13.6804 266.533 13.8619 266.52 14.0428C266.532 14.2104 266.532 14.3787 266.52 14.5464C266.495 14.6713 266.458 14.7936 266.41 14.9118C266.376 14.9939 266.317 15.0631 266.24 15.1093C266.169 15.1571 266.085 15.1813 266 15.1784H257.68V21.7653H264.82C264.903 21.7674 264.983 21.795 265.05 21.8443C265.127 21.8926 265.189 21.9609 265.23 22.0418C265.289 22.1523 265.326 22.273 265.34 22.3973C265.351 22.5782 265.351 22.7596 265.34 22.9404C265.351 23.1048 265.351 23.2698 265.34 23.4342C265.325 23.5551 265.288 23.6723 265.23 23.7798C265.192 23.8597 265.129 23.9254 265.05 23.9675C264.98 24.0068 264.901 24.0272 264.82 24.0267H257.68V31.6011H266.11C266.194 31.5998 266.277 31.6202 266.35 31.6603C266.428 31.7148 266.493 31.7856 266.54 31.8677C266.603 31.9776 266.643 32.0983 266.66 32.2232C266.684 32.3934 266.697 32.5649 266.7 32.7368Z" fill="white"/>
<path d="M283.14 32.7367C283.157 32.9074 283.157 33.0794 283.14 33.2502C283.111 33.3653 283.063 33.4752 283 33.5761C282.956 33.6601 282.89 33.7315 282.81 33.7834C282.74 33.8312 282.655 33.8554 282.57 33.8526H272.35C272.091 33.8485 271.841 33.758 271.64 33.5958C271.514 33.4888 271.417 33.3524 271.357 33.1989C271.298 33.0454 271.278 32.8798 271.3 32.7169V13.9538C271.276 13.7894 271.295 13.6217 271.355 13.4664C271.414 13.311 271.512 13.173 271.64 13.065C271.842 12.9057 272.092 12.8187 272.35 12.8181H282.45C282.531 12.8176 282.61 12.8381 282.68 12.8774C282.76 12.9311 282.823 13.0065 282.86 13.0946C282.909 13.2117 282.942 13.3345 282.96 13.46C282.995 13.6389 283.012 13.8209 283.01 14.0032C283.011 14.1723 282.994 14.341 282.96 14.5068C282.942 14.6323 282.909 14.7551 282.86 14.8722C282.822 14.955 282.759 15.024 282.68 15.0697C282.613 15.1161 282.532 15.1403 282.45 15.1388H274.13V21.7257H281.26C281.346 21.7264 281.43 21.754 281.5 21.8047C281.575 21.8559 281.636 21.9235 281.68 22.0022C281.739 22.1127 281.776 22.2334 281.79 22.3577C281.801 22.5386 281.801 22.72 281.79 22.9008C281.801 23.0652 281.801 23.2302 281.79 23.3946C281.775 23.5155 281.738 23.6327 281.68 23.7402C281.641 23.817 281.581 23.8811 281.507 23.9249C281.432 23.9687 281.347 23.9903 281.26 23.9871H274.13V31.601H282.56C282.644 31.5997 282.727 31.6201 282.8 31.6602C282.876 31.7173 282.94 31.7876 282.99 31.8676C283.049 31.9782 283.086 32.0988 283.1 32.2231C283.129 32.3928 283.142 32.5646 283.14 32.7367Z" fill="white"/>
<path d="M300.81 19.0396C300.823 20.0095 300.643 20.9725 300.28 21.8738C299.95 22.6963 299.437 23.4353 298.78 24.0365C298.086 24.6565 297.268 25.1273 296.38 25.4191C295.282 25.7655 294.133 25.9291 292.98 25.903H290.57V33.4675C290.571 33.55 290.543 33.6303 290.49 33.6946C290.432 33.7701 290.352 33.8254 290.26 33.8526C290.124 33.8992 289.983 33.9323 289.84 33.9513C289.61 33.9639 289.38 33.9639 289.15 33.9513C288.924 33.9639 288.697 33.9639 288.47 33.9513C288.324 33.9321 288.18 33.899 288.04 33.8526C287.947 33.8282 287.866 33.7723 287.81 33.6946C287.76 33.6294 287.735 33.549 287.74 33.4675V14.0822C287.722 13.9137 287.744 13.7434 287.803 13.5843C287.862 13.4251 287.956 13.2813 288.08 13.1638C288.298 12.9823 288.575 12.8842 288.86 12.8873H293.41C293.87 12.8873 294.31 12.8873 294.73 12.8873C295.234 12.9429 295.735 13.0253 296.23 13.1342C296.849 13.278 297.443 13.5145 297.99 13.8353C298.569 14.1596 299.084 14.5845 299.51 15.0895C299.95 15.5986 300.289 16.1848 300.51 16.8177C300.737 17.5361 300.838 18.2875 300.81 19.0396ZM297.81 19.2667C297.837 18.5238 297.671 17.7864 297.33 17.1238C297.05 16.6001 296.636 16.1577 296.13 15.84C295.679 15.5634 295.175 15.3818 294.65 15.3067C294.157 15.2292 293.659 15.1896 293.16 15.1882H290.55V23.6119H293.09C293.814 23.6338 294.536 23.5233 295.22 23.286C295.756 23.0908 296.244 22.7843 296.65 22.3873C297.037 21.9937 297.334 21.5221 297.52 21.0048C297.723 20.447 297.827 19.8593 297.83 19.2667H297.81Z" fill="white"/>
<path d="M329.1 23.0786C329.13 24.6929 328.89 26.3011 328.39 27.8385C327.977 29.1063 327.272 30.2623 326.33 31.2158C325.388 32.1178 324.249 32.7936 323 33.1909C321.481 33.6671 319.893 33.8939 318.3 33.8624H313.79C313.531 33.8583 313.281 33.7678 313.08 33.6056C312.954 33.4986 312.857 33.3622 312.797 33.2088C312.738 33.0553 312.718 32.8896 312.74 32.7267V13.9636C312.716 13.7992 312.735 13.6316 312.795 13.4762C312.854 13.3209 312.952 13.1828 313.08 13.0749C313.282 12.9155 313.532 12.8285 313.79 12.828H318.61C320.196 12.7897 321.777 13.027 323.28 13.5291C324.489 13.9597 325.583 14.6552 326.48 15.5634C327.36 16.4755 328.026 17.5679 328.43 18.763C328.904 20.1526 329.13 21.6127 329.1 23.0786ZM326.1 23.1971C326.111 22.1223 325.966 21.0515 325.67 20.0172C325.414 19.0857 324.957 18.22 324.33 17.4793C323.709 16.7503 322.92 16.1782 322.03 15.8103C320.884 15.3706 319.659 15.1656 318.43 15.2079H315.55V31.601H318.46C319.624 31.6316 320.785 31.4612 321.89 31.0973C322.788 30.7856 323.593 30.2559 324.23 29.5568C324.887 28.801 325.365 27.9105 325.63 26.9497C325.979 25.7294 326.144 24.4649 326.12 23.1971H326.1Z" fill="white"/>
<path d="M336.28 33.4675C336.284 33.549 336.26 33.6294 336.21 33.6946C336.154 33.7723 336.073 33.8283 335.98 33.8526C335.84 33.8991 335.696 33.9321 335.55 33.9514C335.323 33.9639 335.096 33.9639 334.87 33.9514C334.643 33.9636 334.416 33.9636 334.19 33.9514C334.041 33.9308 333.894 33.8978 333.75 33.8526C333.657 33.8283 333.575 33.7723 333.52 33.6946C333.475 33.6273 333.45 33.5483 333.45 33.4675V13.3119C333.451 13.2266 333.479 13.1436 333.53 13.0749C333.595 13.0057 333.678 12.9547 333.77 12.9268C333.917 12.8829 334.068 12.8499 334.22 12.8281C334.436 12.8106 334.654 12.8106 334.87 12.8281C335.096 12.8106 335.324 12.8106 335.55 12.8281C335.696 12.8473 335.84 12.8803 335.98 12.9268C336.07 12.9519 336.15 13.0036 336.21 13.0749C336.258 13.1445 336.283 13.2276 336.28 13.3119V33.4675Z" fill="white"/>
<path d="M350.53 33.3982C350.497 33.5106 350.435 33.6127 350.35 33.6945C350.261 33.7804 350.151 33.8417 350.03 33.8722C349.858 33.9229 349.68 33.9527 349.5 33.9611C349.29 33.9611 349.03 33.9611 348.71 33.9611H348.07H347.61L347.27 33.8821C347.185 33.8613 347.105 33.828 347.03 33.7834C346.97 33.741 346.919 33.6873 346.88 33.6254C346.833 33.5583 346.796 33.4852 346.77 33.4081L339.77 13.8945C339.699 13.7108 339.655 13.5178 339.64 13.3217C339.632 13.2595 339.64 13.1964 339.663 13.1379C339.686 13.0794 339.722 13.0272 339.77 12.9859C339.913 12.893 340.079 12.8417 340.25 12.8378C340.47 12.8378 340.77 12.8378 341.14 12.8378H341.87C342.013 12.8495 342.154 12.8793 342.29 12.9267C342.379 12.9637 342.456 13.0254 342.51 13.1044C342.569 13.1867 342.616 13.2764 342.65 13.3711L348.75 31.0479L354.68 13.4007C354.703 13.2962 354.744 13.1961 354.8 13.1044C354.857 13.0235 354.937 12.9615 355.03 12.9267C355.179 12.8794 355.334 12.8495 355.49 12.8378H356.27C356.54 12.8194 356.81 12.8194 357.08 12.8378C357.228 12.844 357.369 12.8998 357.48 12.9958C357.518 13.0405 357.546 13.0928 357.561 13.149C357.577 13.2053 357.58 13.2642 357.57 13.3217C357.538 13.5211 357.485 13.7165 357.41 13.9043L350.53 33.3982Z" fill="white"/>
<path d="M372.87 32.7368C372.881 32.9077 372.881 33.0793 372.87 33.2503C372.855 33.3786 372.814 33.5028 372.75 33.6157C372.712 33.7036 372.645 33.7765 372.56 33.823C372.493 33.8694 372.412 33.8936 372.33 33.8922H362.09C361.828 33.8865 361.575 33.7963 361.37 33.6354C361.25 33.5239 361.158 33.3865 361.101 33.2341C361.044 33.0816 361.023 32.9182 361.04 32.7565V13.9934C361.021 13.8301 361.041 13.6647 361.099 13.5105C361.156 13.3562 361.249 13.2172 361.37 13.1046C361.576 12.9466 361.829 12.8598 362.09 12.8577H372.18C372.264 12.8564 372.347 12.8769 372.42 12.917C372.497 12.9712 372.556 13.0468 372.59 13.1342C372.643 13.2508 372.68 13.3736 372.7 13.4996C372.718 13.6802 372.718 13.8622 372.7 14.0428C372.717 14.2102 372.717 14.3789 372.7 14.5464C372.68 14.6724 372.643 14.7953 372.59 14.9118C372.556 14.9939 372.497 15.0631 372.42 15.1093C372.35 15.1571 372.265 15.1813 372.18 15.1784H363.86V21.7653H371C371.086 21.7689 371.169 21.7963 371.24 21.8443C371.315 21.8955 371.376 21.9631 371.42 22.0418C371.476 22.153 371.51 22.2736 371.52 22.3973C371.537 22.578 371.537 22.7598 371.52 22.9404C371.537 23.1046 371.537 23.27 371.52 23.4342C371.508 23.5545 371.475 23.6716 371.42 23.7798C371.379 23.8579 371.317 23.923 371.24 23.9675C371.166 24.0056 371.084 24.0259 371 24.0267H363.86V31.6011H372.3C372.381 31.6006 372.46 31.621 372.53 31.6603C372.611 31.7119 372.676 31.7834 372.72 31.8677C372.787 31.9758 372.828 32.0973 372.84 32.2232C372.861 32.3936 372.871 32.5651 372.87 32.7368Z" fill="white"/>
<path d="M401.44 23.0786C401.47 24.6929 401.23 26.3011 400.73 27.8385C400.317 29.1063 399.612 30.2623 398.67 31.2158C397.732 32.1221 396.591 32.7985 395.34 33.1909C393.821 33.6678 392.233 33.8946 390.64 33.8624H386.14C385.878 33.8582 385.624 33.7679 385.42 33.6057C385.298 33.495 385.205 33.3581 385.146 33.2056C385.087 33.0531 385.064 32.8892 385.08 32.7267V13.9636C385.063 13.7996 385.085 13.634 385.144 13.4798C385.203 13.3256 385.298 13.187 385.42 13.0749C385.625 12.9155 385.879 12.8286 386.14 12.828H391C392.586 12.7897 394.167 13.027 395.67 13.5291C396.879 13.9597 397.973 14.6552 398.87 15.5634C399.75 16.4755 400.416 17.5679 400.82 18.763C401.277 20.1556 401.487 21.6155 401.44 23.0786ZM398.44 23.1971C398.446 22.1226 398.302 21.0524 398.01 20.0172C397.75 19.0874 397.293 18.2225 396.67 17.4793C396.052 16.7525 395.272 16.1777 394.39 15.8004C393.244 15.3588 392.019 15.1538 390.79 15.1981H387.91V31.601H390.82C391.988 31.6308 393.151 31.4604 394.26 31.0973C395.156 30.7857 395.957 30.2558 396.59 29.5568C397.257 28.7874 397.739 27.8793 398 26.9003C398.333 25.694 398.491 24.4472 398.47 23.1971H398.44Z" fill="white"/>
<path d="M421.23 32.9045C421.309 33.0862 421.357 33.2799 421.37 33.4773C421.379 33.5386 421.373 33.6012 421.352 33.6597C421.331 33.7181 421.296 33.7707 421.25 33.813C421.119 33.8988 420.967 33.9467 420.81 33.9513C420.54 33.9697 420.27 33.9697 420 33.9513C419.66 33.9513 419.39 33.9513 419.19 33.9513C419.033 33.9493 418.878 33.9226 418.73 33.8723C418.637 33.8479 418.556 33.792 418.5 33.7143C418.441 33.643 418.394 33.563 418.36 33.4773L416.53 28.3618H407.69L405.94 33.4081C405.913 33.5009 405.869 33.588 405.81 33.6649C405.747 33.7439 405.664 33.8052 405.57 33.8427C405.43 33.8995 405.281 33.9329 405.13 33.9414C404.88 33.9596 404.63 33.9596 404.38 33.9414C404.07 33.9414 403.8 33.9414 403.6 33.9414C403.444 33.9302 403.295 33.8754 403.17 33.7834C403.127 33.7393 403.095 33.6861 403.076 33.628C403.057 33.5698 403.052 33.5082 403.06 33.4476C403.078 33.251 403.126 33.0581 403.2 32.8749L410.33 13.3612C410.37 13.2517 410.431 13.151 410.51 13.065C410.599 12.9839 410.705 12.9232 410.82 12.8872C410.99 12.8421 411.164 12.8124 411.34 12.7983H412.16H413.03C413.219 12.8111 413.406 12.8409 413.59 12.8872C413.713 12.9249 413.825 12.989 413.92 13.0748C413.996 13.167 414.057 13.2703 414.1 13.381L421.23 32.9045ZM412.08 15.6721L408.41 26.1498H415.81L412.08 15.6721Z" fill="white"/>
<path d="M435.48 14.0822C435.491 14.2631 435.491 14.4444 435.48 14.6253C435.464 14.7523 435.427 14.8758 435.37 14.9907C435.329 15.0713 435.267 15.1395 435.19 15.1882C435.12 15.236 435.035 15.2602 434.95 15.2573H428.95V33.4674C428.953 33.5473 428.932 33.6264 428.89 33.6946C428.83 33.7678 428.75 33.8226 428.66 33.8526C428.516 33.8977 428.369 33.9308 428.22 33.9513C427.994 33.9639 427.767 33.9639 427.54 33.9513C427.314 33.9636 427.086 33.9636 426.86 33.9513C426.711 33.9308 426.564 33.8977 426.42 33.8526C426.327 33.8282 426.246 33.7723 426.19 33.6946C426.145 33.6272 426.12 33.5483 426.12 33.4674V15.2573H420.12C420.035 15.2602 419.95 15.236 419.88 15.1882C419.803 15.142 419.744 15.0728 419.71 14.9907C419.662 14.8726 419.625 14.7502 419.6 14.6253C419.588 14.4445 419.588 14.263 419.6 14.0822C419.589 13.9013 419.589 13.7199 419.6 13.539C419.624 13.4107 419.661 13.285 419.71 13.1638C419.744 13.0764 419.803 13.0008 419.88 12.9465C419.953 12.9064 420.036 12.886 420.12 12.8873H434.91C434.994 12.886 435.077 12.9064 435.15 12.9465C435.227 13.0031 435.289 13.0777 435.33 13.1638C435.388 13.2816 435.426 13.4086 435.44 13.539C435.464 13.7191 435.478 13.9005 435.48 14.0822Z" fill="white"/>
<path d="M451.86 32.9045C451.93 33.0892 451.977 33.2815 452 33.4773C452.005 33.5393 451.996 33.6017 451.974 33.6598C451.951 33.718 451.916 33.7703 451.87 33.8131C451.742 33.8976 451.594 33.9454 451.44 33.9513C451.167 33.9695 450.893 33.9695 450.62 33.9513C450.28 33.9513 450.01 33.9513 449.81 33.9513C449.654 33.9484 449.498 33.9217 449.35 33.8723C449.258 33.8452 449.178 33.7898 449.12 33.7143C449.061 33.643 449.014 33.5631 448.98 33.4773L447.15 28.3619H438.31L436.57 33.4082C436.539 33.4993 436.495 33.5857 436.44 33.6649C436.373 33.7394 436.291 33.7998 436.2 33.8427C436.06 33.8984 435.911 33.9317 435.76 33.9415C435.51 33.959 435.26 33.959 435.01 33.9415C434.75 33.9545 434.49 33.9545 434.23 33.9415C434.074 33.9338 433.923 33.8786 433.8 33.7835C433.758 33.7387 433.725 33.6857 433.705 33.628C433.684 33.5702 433.676 33.5088 433.68 33.4477C433.703 33.2519 433.75 33.0596 433.82 32.8749L441 13.3712C441.036 13.2622 441.094 13.1615 441.17 13.0749C441.26 12.9959 441.366 12.9355 441.48 12.8971C441.651 12.8618 441.825 12.842 442 12.8379H442.81H443.68C443.869 12.8507 444.056 12.8804 444.24 12.9268C444.363 12.9645 444.475 13.0286 444.57 13.1144C444.653 13.2015 444.715 13.3062 444.75 13.4205L451.86 32.9045ZM442.7 15.6721L439 26.1498H446.39L442.7 15.6721Z" fill="white"/>
<path d="M250.08 65.9179C250.154 66.1011 250.202 66.294 250.22 66.4906C250.226 66.5519 250.219 66.6138 250.198 66.6719C250.178 66.73 250.144 66.7827 250.1 66.8264C249.97 66.9143 249.818 66.9655 249.66 66.9745C249.46 66.9745 249.19 66.9745 248.85 66.9745H248.03C247.874 66.9628 247.719 66.933 247.57 66.8857C247.482 66.8555 247.403 66.8047 247.34 66.7375C247.287 66.6589 247.24 66.5764 247.2 66.4906L245.38 61.3752H236.54L234.79 66.4215C234.765 66.515 234.721 66.6024 234.66 66.6783C234.597 66.7573 234.514 66.8186 234.42 66.856C234.279 66.9122 234.131 66.9487 233.98 66.9646C233.73 66.977 233.48 66.977 233.23 66.9646C232.97 66.9826 232.71 66.9826 232.45 66.9646C232.294 66.9535 232.145 66.8986 232.02 66.8066C231.977 66.7644 231.945 66.713 231.926 66.6565C231.907 66.5999 231.902 66.5398 231.91 66.4808C231.923 66.2802 231.971 66.0832 232.05 65.8981L239.18 46.4141C239.22 46.3099 239.277 46.213 239.35 46.1277C239.439 46.0418 239.549 45.9805 239.67 45.95C239.838 45.8944 240.013 45.8644 240.19 45.8611C240.41 45.8611 240.68 45.8611 241.01 45.8611C241.34 45.8611 241.65 45.8611 241.88 45.8611C242.07 45.8643 242.259 45.8942 242.44 45.95C242.566 45.9797 242.681 46.0448 242.77 46.1376C242.846 46.2261 242.907 46.3262 242.95 46.4339L250.08 65.9179ZM240.92 48.6953L237.25 59.1631H244.65L240.92 48.6953Z" fill="white"/>
<path d="M269.71 65.7499C269.714 65.9399 269.677 66.1286 269.6 66.3029C269.532 66.447 269.433 66.5749 269.31 66.6782C269.192 66.7752 269.056 66.849 268.91 66.8954C268.767 66.9339 268.619 66.9538 268.47 66.9547H267.53C267.271 66.9581 267.012 66.9282 266.76 66.8658C266.53 66.8012 266.315 66.6902 266.13 66.5399C265.901 66.3544 265.699 66.1384 265.53 65.898C265.298 65.5832 265.087 65.2533 264.9 64.9105L258.41 52.9613C258.07 52.3491 257.73 51.6973 257.41 50.9863C257.09 50.2753 256.74 49.6531 256.41 49.0112C256.41 49.7914 256.41 50.5913 256.46 51.401C256.51 52.2108 256.46 53.0206 256.46 53.8205V66.4807C256.46 66.5616 256.436 66.6407 256.39 66.7078C256.328 66.7835 256.245 66.8387 256.15 66.8658C256.01 66.9111 255.866 66.9442 255.72 66.9646C255.494 66.982 255.266 66.982 255.04 66.9646C254.81 66.9824 254.58 66.9824 254.35 66.9646C254.207 66.9455 254.066 66.9124 253.93 66.8658C253.838 66.8386 253.758 66.7833 253.7 66.7078C253.654 66.6407 253.63 66.5616 253.63 66.4807V47.1053C253.615 46.9328 253.64 46.7592 253.704 46.598C253.768 46.4369 253.87 46.2928 254 46.177C254.234 45.9956 254.523 45.8981 254.82 45.9005H256.21C256.485 45.8968 256.76 45.9233 257.03 45.9795C257.244 46.0351 257.446 46.1252 257.63 46.2461C257.822 46.3984 257.993 46.5743 258.14 46.7695C258.327 47.039 258.497 47.3193 258.65 47.6089L263.65 56.8226C263.96 57.3855 264.25 57.9385 264.54 58.4718C264.83 59.005 265.1 59.5383 265.37 60.0617L266.15 61.5924C266.41 62.096 266.67 62.5799 266.92 63.1132C266.92 62.254 266.92 61.3653 266.92 60.437C266.92 59.5087 266.92 58.6199 266.92 57.7706V46.414C266.919 46.336 266.943 46.2596 266.99 46.1968C267.052 46.1239 267.131 46.0664 267.22 46.0289C267.362 45.9752 267.509 45.9387 267.66 45.9202C267.893 45.9079 268.127 45.9079 268.36 45.9202C268.58 45.909 268.8 45.909 269.02 45.9202C269.168 45.9373 269.312 45.9738 269.45 46.0289C269.539 46.0664 269.618 46.1239 269.68 46.1968C269.723 46.2617 269.747 46.3367 269.75 46.414L269.71 65.7499Z" fill="white"/>
<path d="M291.29 65.9179C291.364 66.1011 291.412 66.294 291.43 66.4906C291.436 66.5519 291.429 66.6138 291.408 66.6719C291.388 66.73 291.354 66.7827 291.31 66.8264C291.18 66.9143 291.028 66.9655 290.87 66.9745C290.67 66.9745 290.4 66.9745 290.06 66.9745H289.24C289.084 66.9628 288.929 66.933 288.78 66.8857C288.692 66.8555 288.613 66.8047 288.55 66.7375C288.497 66.6589 288.45 66.5764 288.41 66.4906L286.59 61.3752H277.75L276 66.4314C275.975 66.5249 275.931 66.6123 275.87 66.6881C275.807 66.7672 275.724 66.8285 275.63 66.8659C275.489 66.9221 275.341 66.9586 275.19 66.9745C274.94 66.9869 274.69 66.9869 274.44 66.9745C274.18 66.9925 273.92 66.9925 273.66 66.9745C273.504 66.9633 273.355 66.9085 273.23 66.8165C273.187 66.7743 273.155 66.7229 273.136 66.6664C273.117 66.6098 273.112 66.5497 273.12 66.4906C273.133 66.2901 273.181 66.0931 273.26 65.908L280.39 46.4141C280.43 46.3099 280.487 46.213 280.56 46.1277C280.649 46.0418 280.759 45.9805 280.88 45.95C281.048 45.8944 281.223 45.8644 281.4 45.8611C281.62 45.8611 281.89 45.8611 282.22 45.8611C282.55 45.8611 282.86 45.8611 283.09 45.8611C283.28 45.8643 283.469 45.8942 283.65 45.95C283.776 45.9797 283.891 46.0448 283.98 46.1376C284.056 46.2261 284.117 46.3262 284.16 46.4339L291.29 65.9179ZM282.13 48.6953L278.46 59.1631H285.86L282.13 48.6953Z" fill="white"/>
<path d="M305.87 65.6906C305.882 65.8714 305.882 66.0528 305.87 66.2337C305.853 66.3636 305.816 66.4901 305.76 66.609C305.719 66.6977 305.657 66.7756 305.58 66.8361C305.506 66.884 305.419 66.9082 305.33 66.9052H295.92C295.662 66.9047 295.412 66.8176 295.21 66.6583C295.082 66.5504 294.984 66.4123 294.925 66.257C294.865 66.1016 294.846 65.934 294.87 65.7696V46.325C294.865 46.2435 294.89 46.1631 294.94 46.0979C294.995 46.0202 295.077 45.9643 295.17 45.9399C295.313 45.8936 295.461 45.8606 295.61 45.8412C295.833 45.8292 296.057 45.8292 296.28 45.8412C296.51 45.8283 296.74 45.8283 296.97 45.8412C297.116 45.8615 297.26 45.8946 297.4 45.9399C297.493 45.9643 297.574 46.0202 297.63 46.0979C297.68 46.1631 297.705 46.2435 297.7 46.325V64.4858H305.33C305.42 64.4864 305.507 64.5139 305.58 64.5648C305.655 64.6199 305.716 64.6907 305.76 64.7721C305.819 64.8864 305.856 65.0102 305.87 65.1375C305.882 65.3217 305.882 65.5064 305.87 65.6906Z" fill="white"/>
<path d="M313 58.7385V66.4807C313.003 66.5606 312.982 66.6396 312.94 66.7078C312.882 66.7833 312.802 66.8387 312.71 66.8658C312.566 66.911 312.419 66.944 312.27 66.9646C312.047 66.9815 311.823 66.9815 311.6 66.9646C311.374 66.9824 311.146 66.9824 310.92 66.9646C310.771 66.944 310.624 66.911 310.48 66.8658C310.383 66.8436 310.298 66.7875 310.24 66.7078C310.195 66.6405 310.17 66.5615 310.17 66.4807V58.7385L304.17 46.8881C304.07 46.7045 303.996 46.5085 303.95 46.3054C303.933 46.2489 303.932 46.1891 303.946 46.1319C303.96 46.0747 303.989 46.0222 304.03 45.9795C304.161 45.8925 304.313 45.8414 304.47 45.8314C304.69 45.8314 304.97 45.8314 305.33 45.8314C305.69 45.8314 305.93 45.8314 306.13 45.8314C306.296 45.8516 306.46 45.8846 306.62 45.9302C306.725 45.9535 306.819 46.0088 306.89 46.0882C306.959 46.1687 307.016 46.2585 307.06 46.3548L310 52.3985C310.28 52.9713 310.55 53.5737 310.82 54.1958C311.09 54.818 311.37 55.4598 311.65 56.0919C311.9 55.4796 312.16 54.8673 312.42 54.2551L313.23 52.4479L316.23 46.3745C316.262 46.2757 316.309 46.1824 316.37 46.098C316.431 46.0153 316.52 45.956 316.62 45.9302C316.76 45.8837 316.904 45.8506 317.05 45.8314C317.286 45.8195 317.523 45.8195 317.76 45.8314C318.16 45.8314 318.47 45.8314 318.69 45.8314C318.858 45.84 319.021 45.8947 319.16 45.9894C319.205 46.0298 319.237 46.0818 319.253 46.1395C319.269 46.1972 319.268 46.2581 319.25 46.3153C319.2 46.511 319.126 46.7 319.03 46.8782L313 58.7385Z" fill="white"/>
<path d="M333.8 61.0097C333.818 61.9181 333.63 62.8191 333.25 63.6464C332.894 64.4085 332.372 65.0831 331.72 65.6215C331.042 66.1701 330.26 66.5797 329.42 66.8263C328.497 67.1057 327.535 67.2423 326.57 67.2312C325.899 67.2376 325.229 67.178 324.57 67.0534C324.016 66.9493 323.472 66.804 322.94 66.6189C322.527 66.4712 322.126 66.2929 321.74 66.0856C321.494 65.9559 321.266 65.7967 321.06 65.6116C320.93 65.47 320.834 65.3012 320.78 65.1178C320.713 64.8565 320.683 64.5874 320.69 64.3179C320.672 64.1208 320.672 63.9225 320.69 63.7254C320.702 63.5925 320.736 63.4624 320.79 63.3403C320.817 63.2549 320.874 63.1815 320.95 63.1329C321.026 63.1172 321.104 63.1172 321.18 63.1329C321.418 63.1649 321.643 63.2605 321.83 63.4094C322.179 63.6254 322.54 63.8232 322.91 64.0019C323.418 64.2506 323.946 64.4555 324.49 64.6142C325.188 64.814 325.913 64.9105 326.64 64.9006C327.21 64.9082 327.777 64.8248 328.32 64.6537C328.8 64.5072 329.248 64.2727 329.64 63.9624C330.003 63.6671 330.291 63.2916 330.48 62.8663C330.687 62.403 330.789 61.901 330.78 61.3948C330.795 60.8563 330.653 60.3249 330.37 59.8642C330.084 59.4283 329.713 59.0524 329.28 58.7581C328.799 58.4179 328.287 58.1236 327.75 57.8792L326 57.0003C325.398 56.7236 324.811 56.4171 324.24 56.0819C323.68 55.754 323.166 55.3557 322.71 54.8969C322.271 54.437 321.916 53.9059 321.66 53.3267C321.368 52.6022 321.225 51.828 321.237 51.0485C321.249 50.269 321.416 49.4995 321.73 48.784C322.04 48.1132 322.498 47.5193 323.07 47.046C323.679 46.5632 324.38 46.2041 325.13 45.9893C326.427 45.6067 327.795 45.5223 329.13 45.7424C329.588 45.8161 330.039 45.925 330.48 46.0683C330.868 46.1911 331.246 46.343 331.61 46.5226C331.841 46.6341 332.059 46.7698 332.26 46.9275C332.336 47.002 332.403 47.0848 332.46 47.1744C332.496 47.2466 332.523 47.3229 332.54 47.4015C332.565 47.512 332.582 47.6243 332.59 47.7373C332.59 47.8656 332.59 48.0335 332.59 48.2409C332.601 48.4119 332.601 48.5834 332.59 48.7544C332.58 48.8848 332.556 49.0138 332.52 49.1396C332.496 49.2269 332.448 49.3057 332.38 49.3667C332.321 49.4145 332.246 49.4391 332.17 49.4358C331.969 49.4023 331.777 49.3247 331.61 49.2087L330.66 48.6952C330.235 48.4878 329.794 48.316 329.34 48.1817C328.782 48.0167 328.202 47.9367 327.62 47.9446C327.097 47.9336 326.575 48.0138 326.08 48.1817C325.68 48.3178 325.309 48.5291 324.99 48.8038C324.708 49.0615 324.49 49.3789 324.35 49.7321C324.208 50.0942 324.137 50.4795 324.14 50.8677C324.123 51.4003 324.266 51.9259 324.55 52.3787C324.841 52.8134 325.211 53.1916 325.64 53.4946C326.127 53.8381 326.646 54.1357 327.19 54.3834L328.97 55.2129C329.576 55.4843 330.167 55.7875 330.74 56.1214C331.305 56.4343 331.823 56.8232 332.28 57.2768C332.741 57.7366 333.114 58.2754 333.38 58.8668C333.672 59.5438 333.815 60.2741 333.8 61.0097Z" fill="white"/>
<path d="M340.67 66.4806C340.675 66.5621 340.65 66.6426 340.6 66.7078C340.545 66.7855 340.463 66.8414 340.37 66.8658C340.23 66.9111 340.086 66.9441 339.94 66.9645C339.714 66.982 339.486 66.982 339.26 66.9645C339.034 66.9817 338.806 66.9817 338.58 66.9645C338.431 66.944 338.284 66.9109 338.14 66.8658C338.047 66.8414 337.966 66.7855 337.91 66.7078C337.86 66.6426 337.835 66.5621 337.84 66.4806V46.3251C337.839 46.2425 337.867 46.1622 337.92 46.098C337.982 46.0222 338.066 45.9671 338.16 45.94C338.307 45.896 338.458 45.863 338.61 45.8412C338.826 45.8289 339.044 45.8289 339.26 45.8412C339.487 45.8287 339.714 45.8287 339.94 45.8412C340.086 45.8616 340.23 45.8946 340.37 45.94C340.463 45.9643 340.545 46.0203 340.6 46.098C340.65 46.1631 340.675 46.2436 340.67 46.3251V66.4806Z" fill="white"/>
<path d="M357.75 61.0098C357.768 61.9182 357.58 62.8192 357.2 63.6465C356.844 64.4086 356.322 65.0831 355.67 65.6216C354.992 66.1702 354.21 66.5798 353.37 66.8263C352.447 67.105 351.485 67.2416 350.52 67.2312C349.849 67.2377 349.179 67.1781 348.52 67.0535C347.966 66.9494 347.421 66.8041 346.89 66.619C346.477 66.4712 346.076 66.293 345.69 66.0857C345.444 65.956 345.216 65.7967 345.01 65.6117C344.88 65.4701 344.784 65.3013 344.73 65.1179C344.663 64.8566 344.633 64.5874 344.64 64.318C344.621 64.1209 344.621 63.9226 344.64 63.7255C344.652 63.5926 344.685 63.4624 344.74 63.3404C344.767 63.255 344.824 63.1816 344.9 63.133C344.976 63.1173 345.054 63.1173 345.13 63.133C345.368 63.165 345.593 63.2606 345.78 63.4095C346.129 63.6255 346.49 63.8233 346.86 64.002C347.368 64.2507 347.896 64.4555 348.44 64.6143C349.138 64.8141 349.863 64.9106 350.59 64.9007C351.16 64.9083 351.727 64.8249 352.27 64.6538C352.75 64.5073 353.198 64.2727 353.59 63.9625C353.953 63.6672 354.241 63.2917 354.43 62.8663C354.637 62.4031 354.739 61.9011 354.73 61.3949C354.745 60.8564 354.603 60.325 354.32 59.8642C354.031 59.4306 353.661 59.0552 353.23 58.7582C352.749 58.418 352.237 58.1237 351.7 57.8793L350 57.0004C349.398 56.7237 348.811 56.4172 348.24 56.082C347.68 55.7541 347.166 55.3558 346.71 54.897C346.253 54.441 345.881 53.9096 345.61 53.3268C345.318 52.6023 345.175 51.8281 345.187 51.0486C345.199 50.269 345.366 49.4995 345.68 48.7841C345.98 48.1045 346.431 47.5003 347 47.0164C347.609 46.5336 348.31 46.1745 349.06 45.9598C350.357 45.5772 351.725 45.4928 353.06 45.7129C353.518 45.7865 353.969 45.8955 354.41 46.0388C354.798 46.1616 355.176 46.3134 355.54 46.4931C355.771 46.6045 355.989 46.7403 356.19 46.8979C356.266 46.9725 356.333 47.0553 356.39 47.1448C356.426 47.217 356.453 47.2933 356.47 47.372C356.478 47.4837 356.478 47.596 356.47 47.7077C356.47 47.8361 356.47 48.004 356.47 48.2114C356.481 48.3824 356.481 48.5539 356.47 48.7249C356.46 48.8552 356.436 48.9842 356.4 49.11C356.376 49.1974 356.328 49.2762 356.26 49.3371C356.201 49.3849 356.126 49.4095 356.05 49.4063C355.848 49.3744 355.656 49.2967 355.49 49.1791L354.49 48.6656C354.065 48.4582 353.624 48.2864 353.17 48.1521C352.612 47.9871 352.032 47.9072 351.45 47.9151C350.927 47.904 350.405 47.9843 349.91 48.1521C349.509 48.2883 349.139 48.4995 348.82 48.7743C348.538 49.0319 348.32 49.3493 348.18 49.7025C348.038 50.0647 347.967 50.45 347.97 50.8382C347.953 51.3707 348.096 51.8963 348.38 52.3491C348.671 52.7839 349.041 53.1621 349.47 53.465C349.957 53.8086 350.476 54.1061 351.02 54.3538L352.8 55.1833C353.406 55.4547 353.997 55.758 354.57 56.0919C355.179 56.4044 355.738 56.8036 356.23 57.2769C356.691 57.7367 357.064 58.2754 357.33 58.8668C357.621 59.5439 357.765 60.2742 357.75 61.0098Z" fill="white"/>
</svg>
